<svg xmlns="http://www.w3.org/2000/svg" style="width: 0; height: 0">
  <symbol id="icon-info">
    <path d="M7 0.5C5.71442 0.5 4.45772 0.881218 3.3888 1.59545C2.31988 2.30968 1.48676 3.32484 0.994786 4.51256C0.502816 5.70028 0.374095 7.00721 0.624899 8.26809C0.875703 9.52896 1.49477 10.6872 2.40381 11.5962C3.31285 12.5052 4.47104 13.1243 5.73192 13.3751C6.99279 13.6259 8.29973 13.4972 9.48744 13.0052C10.6752 12.5132 11.6903 11.6801 12.4046 10.6112C13.1188 9.54229 13.5 8.28558 13.5 7C13.4982 5.27665 12.8128 3.62441 11.5942 2.40582C10.3756 1.18722 8.72335 0.50182 7 0.5ZM7 12.5C5.91221 12.5 4.84884 12.1774 3.94437 11.5731C3.0399 10.9687 2.33495 10.1098 1.91867 9.10476C1.50238 8.09977 1.39347 6.9939 1.60568 5.927C1.8179 4.86011 2.34173 3.8801 3.11092 3.11091C3.8801 2.34172 4.86011 1.8179 5.92701 1.60568C6.9939 1.39346 8.09977 1.50238 9.10476 1.91866C10.1098 2.33494 10.9687 3.03989 11.5731 3.94436C12.1774 4.84883 12.5 5.9122 12.5 7C12.4983 8.45818 11.9184 9.85617 10.8873 10.8873C9.85617 11.9184 8.45819 12.4983 7 12.5ZM8 10C8 10.1326 7.94732 10.2598 7.85356 10.3536C7.75979 10.4473 7.63261 10.5 7.5 10.5C7.23479 10.5 6.98043 10.3946 6.7929 10.2071C6.60536 10.0196 6.5 9.76522 6.5 9.5V7C6.36739 7 6.24022 6.94732 6.14645 6.85355C6.05268 6.75979 6 6.63261 6 6.5C6 6.36739 6.05268 6.24021 6.14645 6.14645C6.24022 6.05268 6.36739 6 6.5 6C6.76522 6 7.01957 6.10536 7.20711 6.29289C7.39465 6.48043 7.5 6.73478 7.5 7V9.5C7.63261 9.5 7.75979 9.55268 7.85356 9.64645C7.94732 9.74021 8 9.86739 8 10ZM6 4.25C6 4.10166 6.04399 3.95666 6.1264 3.83332C6.20881 3.70999 6.32595 3.61386 6.46299 3.55709C6.60003 3.50032 6.75083 3.48547 6.89632 3.51441C7.04181 3.54335 7.17544 3.61478 7.28033 3.71967C7.38522 3.82456 7.45665 3.9582 7.48559 4.10368C7.51453 4.24917 7.49968 4.39997 7.44291 4.53701C7.38615 4.67406 7.29002 4.79119 7.16668 4.8736C7.04334 4.95601 6.89834 5 6.75 5C6.55109 5 6.36032 4.92098 6.21967 4.78033C6.07902 4.63968 6 4.44891 6 4.25Z" />
  </symbol>

  <symbol id="icon-export">
    <path d="M12 8V12C12 12.1326 11.9473 12.2598 11.8536 12.3536C11.7598 12.4473 11.6326 12.5 11.5 12.5H0.5C0.367392 12.5 0.240215 12.4473 0.146447 12.3536C0.0526785 12.2598 0 12.1326 0 12V8C0 7.86739 0.0526785 7.74021 0.146447 7.64645C0.240215 7.55268 0.367392 7.5 0.5 7.5C0.632608 7.5 0.759785 7.55268 0.853553 7.64645C0.947321 7.74021 1 7.86739 1 8V11.5H11V8C11 7.86739 11.0527 7.74021 11.1464 7.64645C11.2402 7.55268 11.3674 7.5 11.5 7.5C11.6326 7.5 11.7598 7.55268 11.8536 7.64645C11.9473 7.74021 12 7.86739 12 8ZM5.64625 8.35375C5.69269 8.40024 5.74783 8.43712 5.80853 8.46228C5.86923 8.48744 5.93429 8.50039 6 8.50039C6.06571 8.50039 6.13077 8.48744 6.19147 8.46228C6.25217 8.43712 6.30731 8.40024 6.35375 8.35375L8.85375 5.85375C8.90021 5.8073 8.93705 5.75214 8.9622 5.69145C8.98734 5.63075 9.00028 5.5657 9.00028 5.5C9.00028 5.4343 8.98734 5.36925 8.9622 5.30855C8.93705 5.24786 8.90021 5.1927 8.85375 5.14625C8.80729 5.09979 8.75214 5.06294 8.69145 5.0378C8.63075 5.01266 8.5657 4.99972 8.5 4.99972C8.4343 4.99972 8.36925 5.01266 8.30855 5.0378C8.24786 5.06294 8.19271 5.09979 8.14625 5.14625L6.5 6.79313V1C6.5 0.867392 6.44732 0.740215 6.35355 0.646447C6.25979 0.552678 6.13261 0.5 6 0.5C5.86739 0.5 5.74021 0.552678 5.64645 0.646447C5.55268 0.740215 5.5 0.867392 5.5 1V6.79313L3.85375 5.14625C3.75993 5.05243 3.63268 4.99972 3.5 4.99972C3.36732 4.99972 3.24007 5.05243 3.14625 5.14625C3.05243 5.24007 2.99972 5.36732 2.99972 5.5C2.99972 5.63268 3.05243 5.75993 3.14625 5.85375L5.64625 8.35375Z" />
  </symbol>

</svg>
