<svg width="140" height="32" viewBox="0 0 140 32" fill="none" xmlns="http://www.w3.org/2000/svg">
<rect width="32" height="32" rx="5" fill="#43639D"/>
<g filter="url(#filter0_dd_2912_14105)">
<path d="M26 6C23.9767 6.14065 9.76723 7.4923 8.77509 17.2354C8.65401 18.2786 8.58764 19.3216 8.54075 20.3686L15.5284 13.3875C15.7744 13.1413 16.1689 13.1413 16.415 13.3875C16.6611 13.6335 16.6611 14.0281 16.415 14.2703L6.27537 24.4002C5.90821 24.7675 5.90821 25.3612 6.27537 25.7245C6.64251 26.0918 7.23618 26.0918 7.60339 25.7245L9.8336 23.4939C11.478 23.49 13.1224 23.3962 14.755 23.2048C16.8447 22.9938 18.5437 22.1695 19.9342 20.9976H15.9892L21.7231 19.0872C22.1644 18.5051 22.5589 17.8878 22.9144 17.2472H19.7467L23.9065 15.1688C25.543 11.1919 25.9297 7.02747 26 6Z" fill="white"/>
</g>
<path d="M130.796 29.4405L137.444 14.5605H139.7L133.22 29.4405H130.796ZM133.34 24.6885L128.468 14.5605H131.252L135.236 23.4405L133.34 24.6885Z" fill="#43639D"/>
<path d="M121.917 24.8569C121.181 24.8569 120.477 24.6969 119.805 24.3769C119.133 24.0409 118.597 23.5929 118.197 23.0329L118.341 22.2889V29.4409H115.893V14.3929H118.029L118.365 16.8409L118.101 16.1449C118.597 15.5689 119.205 15.0889 119.925 14.7049C120.661 14.3209 121.477 14.1289 122.373 14.1289C123.317 14.1289 124.165 14.3529 124.917 14.8009C125.669 15.2489 126.261 15.8809 126.693 16.6969C127.125 17.5129 127.341 18.4729 127.341 19.5769C127.341 20.6649 127.101 21.6089 126.621 22.4089C126.157 23.1929 125.517 23.8009 124.701 24.2329C123.885 24.6489 122.957 24.8569 121.917 24.8569ZM121.437 22.9129C122.045 22.9129 122.605 22.7689 123.117 22.4809C123.645 22.1929 124.061 21.8009 124.365 21.3049C124.685 20.7929 124.845 20.2249 124.845 19.6009C124.845 18.9449 124.693 18.3689 124.389 17.8729C124.101 17.3609 123.709 16.9609 123.213 16.6729C122.733 16.3849 122.197 16.2409 121.605 16.2409C121.045 16.2409 120.549 16.3449 120.117 16.5529C119.685 16.7449 119.317 17.0169 119.013 17.3689C118.709 17.7209 118.493 18.1449 118.365 18.6409V20.4889C118.461 20.9529 118.653 21.3689 118.941 21.7369C119.229 22.1049 119.589 22.3929 120.021 22.6009C120.453 22.8089 120.925 22.9129 121.437 22.9129Z" fill="#43639D"/>
<path d="M101.834 19.4803C101.834 18.4723 102.074 17.5683 102.554 16.7683C103.034 15.9523 103.698 15.3123 104.546 14.8483C105.394 14.3843 106.362 14.1523 107.45 14.1523C108.554 14.1523 109.522 14.3843 110.354 14.8483C111.186 15.3123 111.826 15.9523 112.274 16.7683C112.738 17.5683 112.97 18.4723 112.97 19.4803C112.97 20.4883 112.738 21.4003 112.274 22.2163C111.826 23.0323 111.186 23.6803 110.354 24.1603C109.522 24.6243 108.546 24.8563 107.426 24.8563C106.354 24.8563 105.394 24.6403 104.546 24.2083C103.714 23.7763 103.05 23.1603 102.554 22.3603C102.074 21.5443 101.834 20.5843 101.834 19.4803ZM104.33 19.5043C104.33 20.1283 104.466 20.6963 104.738 21.2083C105.01 21.7043 105.378 22.1043 105.842 22.4083C106.306 22.6963 106.826 22.8403 107.402 22.8403C107.994 22.8403 108.522 22.6963 108.986 22.4083C109.45 22.1043 109.81 21.7043 110.066 21.2083C110.338 20.6963 110.474 20.1283 110.474 19.5043C110.474 18.8803 110.338 18.3203 110.066 17.8243C109.81 17.3283 109.45 16.9283 108.986 16.6243C108.522 16.3203 107.994 16.1683 107.402 16.1683C106.81 16.1683 106.282 16.3203 105.818 16.6243C105.354 16.9283 104.986 17.3363 104.714 17.8483C104.458 18.3443 104.33 18.8963 104.33 19.5043Z" fill="#43639D"/>
<path d="M99.4022 23.296C99.1462 23.472 98.7622 23.688 98.2502 23.944C97.7542 24.184 97.1622 24.392 96.4742 24.568C95.8022 24.744 95.0582 24.824 94.2422 24.808C92.8822 24.792 91.6582 24.552 90.5702 24.088C89.4982 23.624 88.5862 22.992 87.8342 22.192C87.0822 21.376 86.4982 20.448 86.0822 19.408C85.6822 18.352 85.4822 17.232 85.4822 16.048C85.4822 14.736 85.6902 13.536 86.1062 12.448C86.5222 11.344 87.1142 10.384 87.8822 9.568C88.6662 8.752 89.5782 8.12 90.6182 7.672C91.6742 7.224 92.8262 7 94.0742 7C95.1462 7 96.1142 7.144 96.9782 7.432C97.8422 7.72 98.5702 8.056 99.1622 8.44L98.1542 10.84C97.6902 10.52 97.1142 10.216 96.4262 9.928C95.7542 9.624 95.0022 9.472 94.1702 9.472C93.3542 9.472 92.5782 9.64 91.8422 9.976C91.1222 10.296 90.4822 10.752 89.9222 11.344C89.3782 11.92 88.9462 12.6 88.6262 13.384C88.3062 14.152 88.1462 14.992 88.1462 15.904C88.1462 16.832 88.2902 17.688 88.5782 18.472C88.8662 19.256 89.2742 19.936 89.8022 20.512C90.3462 21.088 90.9942 21.536 91.7462 21.856C92.4982 22.176 93.3462 22.336 94.2902 22.336C95.1862 22.336 95.9702 22.2 96.6422 21.928C97.3302 21.656 97.8902 21.344 98.3222 20.992L99.4022 23.296Z" fill="#43639D"/>
<path d="M79.0308 14.5603L79.2708 17.4403L79.1508 17.0563C79.4228 16.4483 79.8068 15.9283 80.3028 15.4963C80.7988 15.0643 81.3108 14.7363 81.8388 14.5123C82.3828 14.2723 82.8388 14.1523 83.2068 14.1523L83.0868 16.6003C82.3188 16.5523 81.6468 16.6963 81.0708 17.0323C80.5108 17.3683 80.0708 17.8163 79.7508 18.3763C79.4308 18.9363 79.2708 19.5363 79.2708 20.1763V24.6163H76.8228V14.5603H79.0308Z" fill="#43639D"/>
<path d="M70.5883 14.5612H73.0603V24.6172H70.5883V14.5612ZM70.4443 10.9612C70.4443 10.5772 70.5963 10.2572 70.9003 10.0012C71.2043 9.74519 71.5323 9.61719 71.8843 9.61719C72.2523 9.61719 72.5803 9.74519 72.8683 10.0012C73.1563 10.2572 73.3003 10.5772 73.3003 10.9612C73.3003 11.3452 73.1563 11.6652 72.8683 11.9212C72.5803 12.1612 72.2523 12.2812 71.8843 12.2812C71.5323 12.2812 71.2043 12.1612 70.9003 11.9212C70.5963 11.6652 70.4443 11.3452 70.4443 10.9612Z" fill="#43639D"/>
<path d="M60.5852 24.8569C59.6412 24.8569 58.7852 24.6649 58.0172 24.2809C57.2492 23.8809 56.6412 23.2889 56.1932 22.5049C55.7452 21.7209 55.5212 20.7529 55.5212 19.6009C55.5212 18.4649 55.7532 17.4889 56.2172 16.6729C56.6972 15.8569 57.3212 15.2329 58.0892 14.8009C58.8732 14.3529 59.7212 14.1289 60.6332 14.1289C61.5932 14.1289 62.3772 14.3369 62.9852 14.7529C63.6092 15.1529 64.0972 15.6249 64.4492 16.1689L64.2812 16.5529L64.5212 14.5609H66.8012V24.6169H64.3292V22.0969L64.5932 22.6969C64.5292 22.8249 64.3932 23.0089 64.1852 23.2489C63.9772 23.4729 63.6972 23.7129 63.3452 23.9689C63.0092 24.2249 62.6092 24.4409 62.1452 24.6169C61.6972 24.7769 61.1772 24.8569 60.5852 24.8569ZM61.2572 22.8409C61.7852 22.8409 62.2572 22.7449 62.6732 22.5529C63.0892 22.3609 63.4412 22.0889 63.7292 21.7369C64.0172 21.3849 64.2172 20.9689 64.3292 20.4889V18.4009C64.2012 17.9529 63.9852 17.5689 63.6812 17.2489C63.3772 16.9129 63.0092 16.6489 62.5772 16.4569C62.1612 16.2649 61.6972 16.1689 61.1852 16.1689C60.6092 16.1689 60.0812 16.3129 59.6012 16.6009C59.1212 16.8729 58.7372 17.2569 58.4492 17.7529C58.1612 18.2489 58.0172 18.8249 58.0172 19.4809C58.0172 20.1049 58.1612 20.6729 58.4492 21.1849C58.7532 21.6969 59.1532 22.1049 59.6492 22.4089C60.1452 22.6969 60.6812 22.8409 61.2572 22.8409Z" fill="#43639D"/>
<path d="M43.9998 7.19141H54.4398V9.66341H46.5678V14.8954H53.4558V17.3434H46.5678V24.6154H43.9998V7.19141Z" fill="#43639D"/>
<defs>
<filter id="filter0_dd_2912_14105" x="3" y="4" width="26" height="26" filterUnits="userSpaceOnUse" color-interpolation-filters="sRGB">
<feFlood flood-opacity="0" result="BackgroundImageFix"/>
<feColorMatrix in="SourceAlpha" type="matrix" values="0 0 0 0 0 0 0 0 0 0 0 0 0 0 0 0 0 0 127 0" result="hardAlpha"/>
<feOffset dy="1"/>
<feGaussianBlur stdDeviation="1.5"/>
<feComposite in2="hardAlpha" operator="out"/>
<feColorMatrix type="matrix" values="0 0 0 0 0 0 0 0 0 0 0 0 0 0 0 0 0 0 0.1 0"/>
<feBlend mode="normal" in2="BackgroundImageFix" result="effect1_dropShadow_2912_14105"/>
<feColorMatrix in="SourceAlpha" type="matrix" values="0 0 0 0 0 0 0 0 0 0 0 0 0 0 0 0 0 0 127 0" result="hardAlpha"/>
<feMorphology radius="1" operator="erode" in="SourceAlpha" result="effect2_dropShadow_2912_14105"/>
<feOffset dy="1"/>
<feGaussianBlur stdDeviation="1"/>
<feComposite in2="hardAlpha" operator="out"/>
<feColorMatrix type="matrix" values="0 0 0 0 0 0 0 0 0 0 0 0 0 0 0 0 0 0 0.1 0"/>
<feBlend mode="normal" in2="effect1_dropShadow_2912_14105" result="effect2_dropShadow_2912_14105"/>
<feBlend mode="normal" in="SourceGraphic" in2="effect2_dropShadow_2912_14105" result="shape"/>
</filter>
</defs>
</svg>
